<?xml version="1.0" encoding="UTF-8"?>
<svg xmlns="http://www.w3.org/2000/svg" width="238" height="71" viewBox="0 0 238 71" fill="none">
  <path d="M27.5792 11.7263C27.7702 8.22865 25.2398 7.25886 22.6776 7.25886C16.28 7.25886 12.747 12.855 11.5694 18.4989C9.88246 26.3686 13.5269 29.6913 19.1765 29.6913C20.9111 29.6913 22.6776 29.4528 24.4441 29.1349L25.8446 22.6166H18.7149L20.0677 16.2255H35.982L32.1467 34.1905C27.0222 35.3511 21.8819 36.0506 16.8848 36.0506C13.2404 36.0506 8.30694 35.4942 5.02858 32.553C1.38418 29.3415 0.540723 24.0156 1.71839 18.6579C2.56185 14.6039 4.98083 8.95997 9.61192 5.28748C14.4181 1.51959 20.4337 0.820068 24.4919 0.820068C29.7595 0.820068 33.8654 1.93295 35.9661 4.73104C37.8758 7.29066 37.3188 10.0887 37.0324 11.7263H27.5792Z" fill="#ECBB09"></path>
  <path d="M52.5969 11.1221C60.2039 11.1221 65.3284 14.9377 63.5619 23.2365C62.8616 26.6388 61.127 30.0887 58.1987 32.5052C55.8116 34.413 52.5969 35.8597 47.7907 35.8597C42.6026 35.8597 39.5312 34.6038 37.7169 32.4098C35.5685 29.8502 35.664 26.3526 36.2687 23.5068C37.7965 16.3367 43.3029 11.1221 52.5969 11.1221ZM45.2603 29.1189C45.9128 30.8836 47.5043 30.979 48.3 30.979C52.1194 30.979 53.7586 26.8295 54.4588 23.5704C55.3023 19.5163 55.0636 16.1141 51.5624 16.1141C47.6952 16.1141 46.1038 20.0728 45.3558 23.5704C45.0375 25.1125 44.6556 27.386 45.2603 29.1189Z" fill="#ECBB09"></path>
  <path d="M70.1826 1.66284H78.9514L71.8218 35.3194H63.053L70.1826 1.66284Z" fill="#ECBB09"></path>
  <path d="M107.375 1.66284L101.487 29.4848C101.073 31.4403 100.739 33.3481 100.468 35.3194H92.1608L92.7178 31.8695C91.5083 33.2209 89.0734 35.8759 83.9013 35.8759C75.8327 35.8759 74.9415 29.3576 76.151 23.6183C77.2172 18.6263 79.0951 16.3051 81.0526 14.5722C83.6626 12.2829 86.4635 11.4085 89.4077 11.4085C93.3226 11.4085 94.6753 13.046 95.853 14.6676L98.6062 1.66284H107.375V1.66284ZM94.0706 23.5229C94.914 19.612 94.3093 16.5277 91.2219 16.5277C87.307 16.5277 85.7155 21.4721 85.254 23.666C84.7925 25.9077 84.2196 30.7089 88.1027 30.7089C91.2696 30.693 93.1953 27.5293 94.0706 23.5229Z" fill="#ECBB09"></path>
  <path d="M118.482 1.66284H131.962C136.211 1.66284 140.539 1.66284 143.07 4.41324C143.913 5.39893 145.027 7.21133 144.422 10.2002C143.117 16.162 137.372 17.418 135.606 17.8473L135.558 17.9427C137.611 18.3083 143.404 19.3894 141.908 26.2892C141.351 28.8965 139.712 31.9808 135.606 33.9363C132.662 35.3353 129.256 35.3353 126.232 35.3353H111.352L118.482 1.66284ZM121.744 29.1668H126.917C127.983 29.1668 131.723 29.1668 132.566 25.2558C133.41 21.2018 129.574 21.2018 128.317 21.2018H123.416L121.744 29.1668ZM124.689 15.2241H129.081C130.577 15.2241 131.548 15.2241 132.439 14.8107C133.601 14.2066 134.587 12.9983 134.874 11.5516C135.113 10.5341 135.017 9.3099 134.221 8.56268C133.378 7.76777 132.359 7.76777 131.373 7.76777H126.28L124.689 15.2241Z" fill="#ECBB09"></path>
  <path d="M160.019 11.1221C167.626 11.1221 172.75 14.9377 170.984 23.2365C170.284 26.6388 168.549 30.0887 165.621 32.5052C163.234 34.413 160.019 35.8597 155.213 35.8597C150.041 35.8597 146.953 34.6038 145.139 32.4098C142.99 29.8502 143.086 26.3526 143.691 23.5068C145.218 16.3367 150.725 11.1221 160.019 11.1221ZM152.682 29.1189C153.335 30.8836 154.926 30.979 155.722 30.979C159.541 30.979 161.181 26.8295 161.881 23.5704C162.724 19.5163 162.486 16.1141 158.984 16.1141C155.117 16.1141 153.526 20.0728 152.778 23.5704C152.46 25.1125 152.078 27.386 152.682 29.1189Z" fill="#ECBB09"></path>
  <path d="M174.151 16.9092L174.994 11.9172H183.763L183.063 15.5102C184.511 13.7455 186.882 11.4084 191.736 11.4084C200.314 11.4084 198.929 17.9267 198.261 21.1541L195.237 35.3194H186.468L189.317 21.9013C189.683 20.2638 190.383 16.9569 186.802 16.9569C182.888 16.9569 181.996 21.0587 181.805 21.9013L178.957 35.3194H170.236L174.151 16.9092Z" fill="#ECBB09"></path>
  <path d="M230.377 1.66284L224.489 29.4848C224.075 31.4403 223.741 33.3481 223.47 35.3194H215.163L215.72 31.8695C214.511 33.2209 212.076 35.8759 206.903 35.8759C198.835 35.8759 197.944 29.3576 199.153 23.6183C200.219 18.6263 202.097 16.3051 204.055 14.5722C206.665 12.2829 209.466 11.4085 212.41 11.4085C216.325 11.4085 217.678 13.046 218.855 14.6676L221.608 1.66284H230.377V1.66284ZM217.089 23.5229C217.932 19.612 217.327 16.5277 214.24 16.5277C210.325 16.5277 208.734 21.4721 208.272 23.666C207.811 25.9077 207.238 30.7089 211.121 30.7089C214.288 30.693 216.197 27.5293 217.089 23.5229Z" fill="#ECBB09"></path>
  <path d="M237.029 7.21117C236.392 7.83121 235.628 8.13327 234.737 8.13327C233.814 8.13327 233.05 7.81531 232.414 7.19528C231.793 6.55935 231.475 5.79623 231.475 4.87413C231.475 3.92024 231.809 3.12532 232.493 2.50529C233.13 1.91706 233.878 1.61499 234.737 1.61499C235.628 1.61499 236.408 1.93296 237.045 2.56889C237.681 3.20482 238 3.96793 238 4.87413C238.016 5.79623 237.681 6.57524 237.029 7.21117ZM232.828 2.98224C232.302 3.50688 232.048 4.14281 232.048 4.87413C232.048 5.62135 232.318 6.27318 232.843 6.79782C233.369 7.32246 234.005 7.59273 234.753 7.59273C235.485 7.59273 236.122 7.32246 236.647 6.79782C237.172 6.25728 237.427 5.62135 237.427 4.87413C237.427 4.14281 237.172 3.52278 236.647 2.98224C236.122 2.4417 235.485 2.17143 234.737 2.17143C234.005 2.15553 233.353 2.4258 232.828 2.98224ZM233.321 6.67063V3.06173C233.544 3.06173 233.878 3.06173 234.324 3.06173C234.769 3.06173 235.024 3.06173 235.072 3.06173C235.358 3.07763 235.597 3.14122 235.788 3.25251C236.106 3.42739 236.265 3.71356 236.265 4.11102C236.265 4.41308 236.186 4.63566 236.01 4.76284C235.835 4.90593 235.629 4.98542 235.39 5.00132C235.613 5.04901 235.788 5.11261 235.899 5.208C236.106 5.38288 236.217 5.65315 236.217 6.01881V6.33677C236.217 6.36857 236.217 6.40036 236.217 6.44806C236.217 6.47986 236.233 6.51165 236.249 6.55935L236.281 6.65474H235.374C235.342 6.54345 235.326 6.36857 235.31 6.16189C235.294 5.95521 235.278 5.79623 235.247 5.71674C235.199 5.58955 235.103 5.49416 234.976 5.44647C234.912 5.41467 234.801 5.39877 234.658 5.38288L234.451 5.36698H234.244V6.63884H233.321V6.67063ZM235.04 3.77715C234.912 3.72946 234.721 3.69766 234.483 3.69766H234.26V4.74695H234.626C234.849 4.74695 235.024 4.69925 235.151 4.61976C235.278 4.54027 235.342 4.38129 235.342 4.19051C235.342 3.98383 235.231 3.85664 235.04 3.77715Z" fill="#ECBB09"></path>
  <path d="M4.36054 44.5244H11.713C14.2275 44.5244 15.5961 44.7788 16.5828 46.0347C17.2989 46.8933 17.6172 48.0856 17.2671 49.7072C16.535 53.0936 13.8773 53.9839 12.7952 54.3495C13.941 54.6993 16.6464 55.5419 15.8189 59.4847C15.2141 62.2828 13.1134 63.6977 12.3336 64.1588C10.7104 65.0968 9.10302 65.0968 7.47976 65.0968H0L4.36054 44.5244ZM3.24653 62.7915H8.11633C10.3762 62.7915 12.4291 61.5991 12.9384 59.2303C13.3681 57.1794 12.2541 55.6691 9.7396 55.6691H4.7584L3.24653 62.7915ZM5.29949 53.2208H9.294C10.2648 53.2208 13.575 53.2208 14.2593 49.9775C14.9118 46.8774 12.3177 46.8774 10.7581 46.8774H6.65221L5.29949 53.2208Z" fill="black"></path>
  <path d="M23.4743 50.7883L21.5009 59.9934C21.2144 61.3925 21.1349 63.1572 23.8721 63.1572C25.209 63.1572 26.5776 62.6961 27.5802 61.5673C28.3759 60.7088 28.6146 59.596 28.7579 58.8964L30.4925 50.8042H33.2616L30.779 62.4258C30.7153 62.712 30.4448 64.3018 30.2856 65.0968H27.4847L27.9462 62.6484C27.2301 63.65 25.9251 65.2398 22.8377 65.2398C19.3047 65.2398 18.0793 63.2208 18.6681 60.3909L20.7211 50.7883H23.4743V50.7883Z" fill="black"></path>
  <path d="M37.6211 50.7882H40.2947L37.2392 65.0966H34.5656L37.6211 50.7882ZM38.6396 44.5879H41.8703L41.2496 47.5291H38.019L38.6396 44.5879Z" fill="black"></path>
  <path d="M46.0239 44.5562H48.6975L44.3369 65.0967H41.6633L46.0239 44.5562Z" fill="black"></path>
  <path d="M62.9726 44.5562H65.6462L61.779 62.8232C61.7153 63.1412 61.5244 64.3654 61.413 65.0967H58.7234L59.1531 62.8232C58.8348 63.2207 58.4051 63.8248 57.5617 64.3336C56.2249 65.1285 54.7608 65.3829 53.79 65.3829C51.8803 65.3829 47.8221 64.3813 49.1748 58.1174C50.3525 52.6802 53.9332 50.3113 57.3071 50.3113C60.3944 50.3113 61.0469 52.1396 61.2379 52.7279L62.9726 44.5562ZM60.0284 53.7612C59.5987 53.014 58.6916 52.3145 57.1797 52.3145C53.2489 52.3145 52.2463 57.0681 52.0394 58.0379C51.4983 60.5657 51.5301 63.5069 54.8085 63.5069C59.0258 63.5069 60.0284 58.8646 60.2512 57.7517C60.6809 55.669 60.4581 54.5244 60.0284 53.7612Z" fill="black"></path>
  <path d="M68.3356 50.7882H71.0092L67.9536 65.0966H65.28L68.3356 50.7882ZM69.3541 44.5879H72.5847L71.9641 47.5291H68.7334L69.3541 44.5879Z" fill="black"></path>
  <path d="M75.084 52.4418L75.4182 50.7884H78.0918L77.6144 53.0936C78.0759 52.4895 79.5241 50.5022 82.7707 50.5022C84.0597 50.5022 87.8473 50.9791 86.9084 55.3671L84.8554 65.0809H82.1182L84.0597 55.9871C84.2507 55.0491 84.3144 54.1906 83.8051 53.5388C83.264 52.8869 82.3728 52.569 81.4657 52.569C79.5241 52.569 77.4393 53.968 76.8187 56.8456L75.084 65.0809H72.4104L75.084 52.4418Z" fill="black"></path>
  <path d="M91.2373 66.2097C91.0145 67.7996 91.4442 69.0078 93.9746 69.0078C97.7144 69.0078 98.3351 66.3051 99.1627 62.426C97.5076 64.7948 94.8021 64.8425 93.9427 64.8425C92.6378 64.8425 90.8076 64.5563 89.9164 63.0778C89.0093 61.631 89.0093 59.7074 89.4071 57.7996C90.4575 52.9506 93.7995 50.5977 97.3007 50.5977C100.181 50.5977 100.945 52.0285 101.359 52.7598L101.82 50.7884H104.414L103.794 53.3799L101.884 62.3306C101.136 65.7805 100.706 67.1795 99.9106 68.2606C98.2237 70.5341 95.375 70.8202 93.4016 70.8202C87.6725 70.8202 88.0703 68.1493 88.3886 66.2097H91.2373ZM98.4783 61.4244C99.2263 60.6771 99.7992 59.914 100.34 57.3226C100.706 55.5261 100.547 54.5086 99.9902 53.7614C99.4173 52.9983 98.3988 52.5054 97.1734 52.5054C93.7836 52.5054 92.5741 55.9236 92.2081 57.7519C91.7147 59.9458 91.7784 62.8552 95.0567 62.8552C96.6164 62.8552 97.6508 62.2829 98.4783 61.4244Z" fill="black"></path>
  <path d="M116.891 44.5244H123.798C126.312 44.5244 127.983 44.6675 129.081 46.1778C129.877 47.2271 130.084 48.6262 129.734 50.1683C129.416 51.7422 128.62 53.0777 127.251 54.1906C125.93 55.2716 124.371 55.9553 120.663 55.9553H117.321L115.379 65.0968H112.53L116.891 44.5244ZM117.83 53.5546H121.22C123.098 53.5546 126.01 53.4115 126.726 50.057C127.41 46.8297 124.721 46.8297 123.241 46.8297H119.246L117.83 53.5546Z" fill="black"></path>
  <path d="M131.103 53.6975C131.31 52.7277 131.469 51.7261 131.596 50.7881H134.302L133.76 53.5544C134.699 51.5671 136.561 50.8994 137.787 50.7404C138.614 50.6291 139.219 50.6609 139.665 50.6768L139.092 53.3001C138.949 53.2365 138.805 53.2206 138.614 53.1888C138.407 53.157 138.153 53.157 137.85 53.157C134.684 53.157 133.538 55.033 133.028 57.4813L131.405 65.0966H128.7L131.103 53.6975Z" fill="black"></path>
  <path d="M148.099 50.4226C153.828 50.4226 154.178 54.9218 153.541 57.9107C152.634 62.0919 149.515 65.5736 144.645 65.5736C139.903 65.5736 138.311 62.2986 139.203 58.1015C139.935 54.5879 142.481 50.4226 148.099 50.4226ZM145.139 63.5864C147.16 63.5864 149.786 62.1396 150.709 57.8312C151.473 54.27 150.215 52.394 147.717 52.394C145.998 52.394 143.006 53.4751 142.035 57.9425C141.399 60.8837 142.083 63.5864 145.139 63.5864Z" fill="black"></path>
  <path d="M169.631 44.5562H172.305L168.438 62.8232C168.374 63.1412 168.183 64.3654 168.072 65.0967H165.398L165.828 62.8232C165.509 63.2207 165.08 63.8248 164.236 64.3336C162.899 65.1285 161.435 65.3829 160.464 65.3829C158.555 65.3829 154.497 64.3813 155.849 58.1174C157.027 52.6802 160.608 50.3113 163.982 50.3113C167.069 50.3113 167.721 52.1396 167.912 52.7279L169.631 44.5562ZM166.687 53.7612C166.257 53.014 165.35 52.3145 163.838 52.3145C159.907 52.3145 158.905 57.0681 158.698 58.0379C158.157 60.5657 158.189 63.5069 161.467 63.5069C165.684 63.5069 166.687 58.8646 166.91 57.7517C167.339 55.669 167.117 54.5244 166.687 53.7612Z" fill="black"></path>
  <path d="M177.413 50.7883L175.44 59.9934C175.153 61.3925 175.074 63.1572 177.811 63.1572C179.148 63.1572 180.517 62.6961 181.519 61.5673C182.315 60.7088 182.554 59.596 182.697 58.8964L184.432 50.8042H187.201L184.718 62.4258C184.654 62.712 184.384 64.3018 184.225 65.0968H181.424L181.885 62.6484C181.169 63.65 179.864 65.2398 176.777 65.2398C173.244 65.2398 172.018 63.2208 172.607 60.3909L174.66 50.7883H177.413V50.7883Z" fill="black"></path>
  <path d="M198.691 55.3828C198.771 54.731 199.089 52.3939 196.495 52.3939C192.787 52.3939 191.88 56.7024 191.641 57.7834C191.021 60.7246 191.132 63.4591 193.981 63.4591C196.272 63.4591 197.402 61.7421 197.752 60.359H200.458C199.71 63.1571 197.116 65.4941 193.583 65.4941C192.612 65.4941 190.448 65.2874 189.27 63.6499C188.618 62.6483 188.092 61.138 188.729 58.1809C189.986 52.2191 194.012 50.4543 196.861 50.4543C197.8 50.4543 199.917 50.661 200.887 52.2191C201.683 53.4432 201.508 54.6197 201.397 55.4146H198.691V55.3828Z" fill="black"></path>
  <path d="M202.733 50.7404H205.279L205.9 47.7516L208.748 46.8931L207.921 50.7404H211.119L210.69 52.7118H207.491L205.661 61.281C205.518 61.9964 205.263 63.1888 207.173 63.1888C207.714 63.1888 208.255 63.1093 208.478 63.0457L208.048 65.1284C207.539 65.2079 206.759 65.3032 205.788 65.3032C203.337 65.3032 202.303 64.5878 202.796 62.2508L204.817 52.7118H202.271L202.733 50.7404Z" fill="black"></path>
  <path d="M212.966 60.8518C212.711 61.9328 212.934 63.4432 215.528 63.4432C216.642 63.4432 217.533 63.2365 218.233 62.537C218.599 62.1713 218.886 61.6785 218.981 61.2015C219.299 59.8025 218.329 59.5481 216.308 59.0712C213.459 58.3875 211.088 57.7834 211.708 54.7945C212.249 52.1713 214.907 50.4702 218.217 50.4702C220.016 50.4702 222.403 50.979 222.928 52.696C223.135 53.4909 222.992 54.1745 222.848 54.7786H220.111C220.652 52.6165 218.822 52.4416 217.851 52.4416C217.453 52.4416 214.939 52.4416 214.493 54.4925C214.239 55.7961 215.432 56.1141 216.148 56.3208C219.92 57.2588 220.716 57.4813 221.4 58.2922C222.021 59.0394 222.116 60.0251 221.909 60.9472C221.559 62.537 220.398 63.9042 219.204 64.572C217.804 65.3351 216.244 65.5418 214.748 65.5418C211.836 65.5418 209.385 64.3494 210.149 60.8995H212.966V60.8518Z" fill="black"></path>
</svg>
